<svg xmlns="http://www.w3.org/2000/svg" height="800" width="1200" viewBox="-48.4185 -94.96025 419.627 569.7615"><path d="M161.395.396c-38.436 0-109.31 9.944-145.402 30.932C-31.527 199.803 33.1 314.37 161.395 379.396 289.69 314.37 354.318 199.236 306.797 31.33 270.667 10.34 199.83.396 161.395.396z" stroke-miterlimit="282" stroke-width=".793" stroke="#9C824A" fill="#9C824A"/><path d="M161.395 11.228c-37.761 0-80.278 4.83-135.962 27.558C-16.02 185.847 32.07 303.717 161.395 367.96 290.72 303.717 338.773 185.846 297.32 38.786c-55.684-22.728-98.165-27.558-135.926-27.558z" stroke-miterlimit="282" stroke-width=".793" stroke="#023474" fill="#023474"/><path d="M161.218 11.086c-37.584 0-77.936 5.575-114.35 19.355-37.76 150.577-9.9 260.526 114.563 337.413zm.213 356.768c124.462-76.887 152.287-186.836 114.525-337.413-36.412-13.78-76.73-19.355-114.312-19.355z" stroke-miterlimit="282" stroke-width=".793" stroke="#FFF" fill="#FFF"/><path d="M161.43 11.051c-37.796 0-76.054 5.717-107.143 16.548-39.11 157.822-7.702 264.397 107.179 337.235z" stroke-miterlimit="282" stroke-width=".793" stroke="#EF0107" fill="#EF0107"/><path d="M161.502 11.051c37.796 0 76.055 5.717 107.179 16.548 39.11 157.822 7.7 264.397-107.214 337.235z" stroke-miterlimit="282" stroke-width=".793" stroke="#DB0007" fill="#DB0007"/><path d="M112.597 249.203c-16.68 11.437-29.953 15.556-45.356 19.64l-9.298-14.454c14.16-7.173 28.818-17.153 43.582-31.606 1.242 14.026 7.77 23.97 11.072 26.42z" fill="#FFF"/><path d="M110.325 248.6c-15.828 10.866-37.868 18.431-63.101 22.124l-5.146-7.812c21.613-8.099 42.48-20.172 58.665-37.147 2.449 10.866 6.175 18.076 9.582 22.835z" fill="#9C824A"/><path d="M68.164 182.225A10.954 10.954 0 0157.198 193.2c-6.07 0-11.002-4.9-11.002-10.974 0-6.073 4.933-10.973 11.002-10.973 6.069 0 10.966 4.9 10.966 10.973z" fill="#FFF"/><path d="M66.992 160.597v41.41h32.615c2.129-13.887 10.008-28.625 27.859-41.41H66.992" fill="#FFF"/><path d="M68.306 202.006c-7.276.106-13.273-9.02-13.38-20.456-.071-11.436 5.75-20.81 13.06-20.953h.25" fill="#FFF"/><path d="M63.55 182.225c0 4.688-3.407 8.453-7.595 8.453s-7.595-3.764-7.595-8.453c0-4.688 3.407-8.452 7.595-8.452s7.595 3.764 7.595 8.452zm4.33-19.461v37.217h32.367c2.555-12.358 8.837-25.498 24.523-37.217H67.88" fill="#9C824A"/><path d="M69.086 199.981c-6.85.143-12.457-8.096-12.563-18.36-.071-10.263 5.43-18.716 12.279-18.857h.213" fill="#9C824A"/><path d="M223.324 211.701c0 34.556-27.965 62.54-62.497 62.54-34.496 0-62.497-27.984-62.497-62.54 0-34.554 28-62.539 62.497-62.539 34.532 0 62.497 27.985 62.497 62.54z" fill="#FFF"/><path d="M220.06 211.701c0 32.744-26.511 59.271-59.232 59.271-32.686 0-59.197-26.527-59.197-59.27 0-32.708 26.51-59.272 59.197-59.272 32.72 0 59.233 26.528 59.233 59.271z" fill="#9C824A"/><path d="M210.229 211.701c0 27.31-22.111 49.436-49.402 49.436-27.256 0-49.366-22.126-49.366-49.436s22.11-49.435 49.366-49.435c27.29 0 49.402 22.125 49.402 49.435z" fill="#FFF"/><path d="M206.965 211.701c0 25.498-20.656 46.132-46.138 46.132-25.446 0-46.101-20.634-46.101-46.132 0-25.498 20.655-46.13 46.1-46.13 25.483-.002 46.139 20.632 46.139 46.13z" fill="#9C824A"/><path d="M180.062 211.701c.036 10.62-8.588 19.25-19.2 19.284-10.646 0-19.271-8.629-19.271-19.248v-.036c0-10.619 8.589-19.248 19.235-19.248 10.61-.035 19.235 8.595 19.235 19.213v.035z" fill="#FFF"/><path d="M177.792 211.701c0 9.377-7.561 16.976-16.93 16.976-9.368 0-16.963-7.563-17-16.939v-.036c0-9.375 7.596-16.976 16.965-16.976s16.965 7.565 16.965 16.94z" fill="#9C824A"/><path d="M169.558 211.701c0 4.794-3.904 8.7-8.73 8.735-4.791 0-8.695-3.905-8.695-8.735 0-4.829 3.904-8.7 8.695-8.735a8.727 8.727 0 018.73 8.735z" fill="#FFF"/><path d="M167.145 211.701a6.31 6.31 0 01-6.317 6.321 6.31 6.31 0 01-6.317-6.32c0-3.48 2.839-6.32 6.317-6.32a6.309 6.309 0 016.317 6.32z" fill="#9C824A"/><path fill="#FFF" d="M154.19 164.504h13.132v30.647H154.19z"/><path fill="#9C824A" d="M156.249 160.1h9.049v38.958h-9.05z"/><path fill="#FFF" d="M178.892 209.5l-7.133-11.01 25.658-16.692 7.169 11.01z"/><path fill="#9C824A" d="M174.49 209.961l-4.932-7.635 32.65-21.202 4.934 7.6z"/><path fill="#FFF" d="M123.563 241.675l-7.027-11.116 25.872-16.372 7.027 11.08z"/><path fill="#9C824A" d="M118.808 242.065l-4.863-7.67 32.864-20.847 4.862 7.671z"/><path fill="#FFF" d="M154.19 229.281h13.132v30.646H154.19z"/><path fill="#9C824A" d="M156.249 224.913h9.049v38.922h-9.05z"/><path d="M148.016 226.013c1.775 1.491 3.726 2.841 6.175 3.871l-.071 27.345c-12.386-1.598-21.755-7.706-28.853-16.406l22.785-14.81" stroke-miterlimit="282" stroke-width=".311" stroke="#EF0107" fill="#EF0107"/><path d="M173.603 226.12c-1.81 1.456-3.727 2.841-6.175 3.835l.035 27.346c12.386-1.598 21.756-7.706 28.854-16.407l-22.75-14.773" stroke-miterlimit="282" stroke-width=".311" stroke="#DB0007" fill="#DB0007"/><path d="M179.814 214.65l27.114-3.269c.213 6.782-1.42 12.75-3.727 18.467l-23.46-15.199" fill="#DB0007"/><path d="M179.85 214.542c.106-.426.07-.816.249-2.059l26.76-3.48c.106 1.243.035 1.704 0 2.272z" stroke-miterlimit="282" stroke-width=".311" stroke="#FFF" fill="#FFF"/><path d="M219.457 191.992h35.1c-1.101 4.154-2.166 8.38-7.206 10.263-8.056 3.02-24.771 5.931-24.771 5.931-.32-4.582-1.35-10.798-3.123-16.194z" fill="#FFF"/><path d="M195.005 159.994l91.705.106-3.23 33.524-62.64 3.268c-3.371-14.987-14.764-29.298-25.835-36.898z" fill="#FFF"/><path d="M198.269 162.373l117.08.106-4.471 27.311-90.854 4.475c-3.585-13.567-11.782-23.475-21.755-31.892z" fill="#9C824A"/><path d="M219.457 191.992h32.33c-1.064 3.692-1.81 7.066-6.565 8.735-7.56 2.7-22.784 4.83-22.784 4.83-.64-4.438-1.562-8.949-2.981-13.565zm-35.49-80.687c0 1.492-.32 5.576-.496 6.712h18.17c-1.101-4.83-1.598-11.542-1.74-16.727 0 .355-.318-10.406-.318-10.406 0-.746.319-1.882.78-2.237.64-.746 1.279-.746 2.06-.746.78-.355 2.2-.355 2.377 2.593l.462 11.151c.177 5.22.177 12.288-.462 16.372h17.497c-.143-1.492-.64-5.22-.781-6.322 2.2 4.83 6.956 7.422 13.273 7.422 3.762 0 6.636-1.457 8.837-2.948 0 .355.923 1.848.923 1.848h32.509c-1.42-4.83-2.343-11.542-2.84-16.727l-4.578-36.437-16.716-2.983c1.42 4.83 2.379 11.897 2.98 16.727l2.556 23.44c.462 4.083.782 8.558.782 13.387v.355l-.64-1.492c-1.277-2.983-1.881-6.676-2.378-12.252l-.603-7.458c-.958-11.897-7.417-17.083-21.65-17.083-2.341 0-8.34.355-11.994 1.492l.958 13.353 3.798-2.202c3.159-1.882 5.5-2.628 8.339-2.628 2.237 0 3.656.747 4.295 2.238-2.696.39-5.68 1.136-9.014 2.592-5.04 2.237-8.2 5.61-9.618 9.304v-.355L220.238 89c-.283-7.813-5.358-12.998-13.096-12.998-3.442 0-6.602 1.101-9.44 2.983-.177-.39-.32-.747-.497-1.137l-.64-1.492-14.515-.746c.639 2.628 1.598 10.051 1.74 12.644-.782-3.694-2.84-7.778-6.638-10.76-2.98-1.883-6.778-2.984-10.717-2.984-5.36 0-10.896 2.237-14.516 5.966-3.797 3.693-5.68 8.914-5.856 14.845-1.42-1.492-3.3-2.948-5.501-3.693l-6.637-3.374h-.32c-1.56-.747-1.738-1.102-1.738-1.457.178-.746 1.739-1.492 3.798-1.492 2.839 0 6.779 1.492 9.937 3.34l.319-11.898c-2.378-1.137-5.678-1.847-10.434-1.847-2.52 0-7.24.355-11.357 2.592a43.082 43.082 0 00-2.981 2.238l.142-3.375c-3.797-.71-7.88-.71-12.92 4.12-.176-.39-.496-2.238-.815-2.983l-15.615.746c1.1 4.44 1.277 10.761.958 16.337l-.32 5.966v.746c-.177 2.983-.318 6.321-.638 9.304-1.278-4.12-2.662-9.695-3.798-14.134l-7.736-34.945-22.075 3.338c.142.355.46 1.492.639 2.592.143 1.492.143 4.475-1.916 10.796-3.62 10.016-8.66 25.286-13.557 36.046-.64 1.492-1.916 3.73-1.916 3.73h17.212c.32-2.594 1.42-7.068 2.52-10.407 2.378 0 8.518 0 11.356-.39.639 2.627 1.278 5.965 1.456 8.202l.284 2.593h34.425c-.781-5.576-.462-12.999-.177-17.118.319-4.83 1.277-8.168 3.336-10.015 1.56-1.882 3.3-2.237 4.578-2.237-.177 6.676 4.082 9.66 7.879 11.506l6.778 3.373c2.378 1.492 2.378 1.847 2.378 2.593-.142 1.101-2.06 1.492-3.797 1.492-3.62 0-8.518-2.238-13.877-8.168l-.32 15.59c4.26 2.237 9.619 3.338 14.375 3.338 7.879 0 16.254-3.694 18.455-10.76 3.939 7.421 11.676 10.76 19.27 10.76 6.778.006 11.817-2.197 16.254-7.06zM65.43 96.07c.958-2.592 1.738-4.83 3.158-8.914.958 4.084 1.419 6.677 1.88 8.56-1.88.354-2.838.354-5.038.354zm96.603-4.084c0-5.185 1.88-7.422 3.763-7.422.639 0 2.058-.39 2.696 2.237.319 1.101.46 1.847.46 2.202 0 1.492-.78 1.882-1.737 1.882v.355s-2.662.746-5.182 1.882v-1.136zm17.993 10.796c-3.337 2.948-5.714 4.83-9.653 4.83-3.158-.39-5.04-2.238-6.14-4.83 3.3-1.136 16.077-5.966 19.732-7.458 0 2.983.143 6.321.143 6.321v6.322zm58.842 5.186c-2.98 0-3.62-2.238-3.762-3.694.142-1.492.603-3.729 5.358-5.22a93.08 93.08 0 00.319 3.338v1.491c.143 1.136.143 2.237.284 3.338-.602.391-1.382.391-2.2.747" fill="#9C824A"/><path d="M143.224 78.597c-1.561-.355-3.94-1.1-7.736-1.1-2.981 0-6.921.745-9.938 2.237-3.478 2.237-5.998 5.185-6.14 8.56-.32 5.184 2.378 7.421 6.317 9.268 2.662 1.492 5.217 2.983 6.779 3.73 2.058 1.1 3.939 2.236 3.797 4.83-.177 2.592-2.555 4.474-6.494 4.474-3.301 0-8.021-2.237-11.357-5.22l-.142 7.812c2.839 1.492 7.417 2.237 11.676 2.237 7.24 0 16.254-3.338 16.396-11.542.177-6.32-4.258-8.559-6.92-10.015-2.697-1.136-5.395-2.627-6.636-2.983-1.278-.746-3.798-1.49-3.62-4.475.284-2.592 3.3-3.729 6.459-3.729 2.662 0 5.359.746 7.417 1.882m-64.698-19.71L61.633 67.09c.32 2.238-.32 6.677-2.058 11.897-3.442 10.015-9.121 26.741-13.558 36.436h10.435c.603-3.373 1.384-6.32 2.98-10.405l15.475-.39c.603 2.982 1.739 7.812 1.88 10.795h14.055c-1.74-4.119-3.94-12.643-5.358-18.609zm-16.751 33.81l7.595-21.913 4.579 21.557m44.646-19.71l-.32 7.458c-2.52-.39-5.677.355-8.197 2.948-2.201 2.237-3.62 5.576-3.94 11.542-.32 4.83-.461 10.406-.177 14.88h-11.82c.782-4.474 1.102-9.66 1.243-14.524l.319-5.93c.319-4.83.319-9.66-.461-14.135l10.434-.355c.462 1.492.78 4.084.604 6.676 4.578-7.069 9.014-8.56 12.315-8.56M267.297 67.09l-10.754-1.882c1.1 4.866 1.42 8.204 2.059 13.033l2.52 23.404c.497 4.83.959 9.305.816 13.78h11.677c-1.136-4.475-1.597-8.95-2.06-13.78m-52.417 13.779c-.604-4.474-.924-8.949-1.102-13.779l-.461-12.252c-.32-6.712-4.116-10.405-10.434-10.405-3.442 0-7.56 1.101-11.037 5.575-.142-1.136-.64-4.084-1.277-5.575l-9.44-.39c.78 4.474 1.1 8.913 1.24 13.743l.179 9.304c.142 4.83 0 9.305-.32 13.78h11.819c-.604-4.475-.923-8.95-1.101-13.78l-.32-10.405c-.141-3.729 2.698-6.322 5.538-6.322 3.3 0 4.897 2.237 5.04 5.576l.496 11.151c.143 4.83.143 9.305-.177 13.78m48.301-.001c-1.42-3.729-2.2-8.203-2.52-13.033l-.64-7.423c-.64-8.914-4.4-14.88-18.951-14.88-2.52 0-6.14.391-9.12 1.101l.46 6.712c2.98-1.847 5.999-3.338 9.796-3.338 3.939 0 7.24 1.847 7.56 7.422-3.798.391-7.276 1.101-11.215 2.983-4.4 1.847-8.98 5.576-8.518 11.506.46 6.712 5.536 9.695 11.854 9.695 4.897 0 8.198-2.237 10.079-4.474.319 1.491.816 2.592 1.277 3.73h9.938zm-17.213-4.83c-3.48 0-6.316-1.882-6.46-5.966 0-4.084 2.52-7.422 10.577-8.559l.462 6.322c.177 2.237.177 3.73.496 5.576-1.134 1.491-3.016 2.237-5.075 2.627M175.59 79.733c-2.695-1.882-5.854-2.628-9.154-2.628-7.737 0-17.994 5.576-17.675 19.71.142 14.49 11.215 18.964 18.952 18.964 6.778 0 10.896-2.593 14.195-5.93l-2.378-3.375c-1.738 1.492-4.578 3.73-9.156 3.73-4.898-.356-8.021-3.73-9.76-8.915l21.436-7.813c-.64-7.066-3.158-11.15-6.46-13.743zm-7.416 13.744l-8.518 3.338c-.177-1.49-.32-2.983-.32-4.83 0-8.559 4.72-10.05 6.317-10.05 2.52-.355 4.72 1.136 5.536 4.12.924 3.338.605 6.321-3.015 7.422M150.5 196.075l-7.205 11.01-25.623-16.798 7.204-10.974z" fill="#FFF"/><path fill="#9C824A" d="M152.807 200.265l-4.97 7.601-32.543-21.344 4.969-7.6z"/><path fill="#FFF" d="M205.189 231.02l-7.204 11.01-25.623-16.798 7.204-11.01z"/><path fill="#9C824A" d="M207.497 235.211l-4.97 7.565-32.544-21.309 4.969-7.599z"/></svg>